<?xml version="1.0" standalone="no"?>
<!DOCTYPE svg PUBLIC "-//W3C//DTD SVG 20010904//EN"
 "http://www.w3.org/TR/2001/REC-SVG-20010904/DTD/svg10.dtd">
<svg version="1.0" xmlns="http://www.w3.org/2000/svg"
 width="48.000000pt" height="48.000000pt" viewBox="0 0 48.000000 48.000000"
 preserveAspectRatio="xMidYMid meet">

<g transform="translate(0.000000,48.000000) scale(0.100000,-0.100000)"
fill="#000000" stroke="none">
<path d="M0 240 l0 -240 240 0 240 0 0 240 0 240 -240 0 -240 0 0 -240z m181
130 c3 0 18 -27 34 -60 16 -33 32 -60 35 -60 4 0 17 11 30 25 13 14 30 25 37
25 28 0 24 -29 -11 -78 -32 -46 -33 -51 -19 -71 14 -21 11 -71 -5 -71 -4 0
-19 19 -33 43 -19 30 -26 52 -23 79 2 27 0 36 -10 32 -20 -8 -116 111 -116
145 0 5 16 5 38 0 20 -5 40 -9 43 -9z"/>
</g>
</svg>
